<?xml version="1.0" standalone="no"?>
<!DOCTYPE svg PUBLIC "-//W3C//DTD SVG 20010904//EN"
 "http://www.w3.org/TR/2001/REC-SVG-20010904/DTD/svg10.dtd">
<svg version="1.0" xmlns="http://www.w3.org/2000/svg"
 width="50.000000pt" height="50.000000pt" viewBox="0 0 50.000000 50.000000"
 preserveAspectRatio="xMidYMid meet">
<metadata>
Created by potrace 1.16, written by Peter Selinger 2001-2019
</metadata>
<g transform="translate(0.000000,50.000000) scale(0.001000,-0.001250)"
fill="#000000" stroke="none">
<path d="M33555 31169 c-3343 -706 -6878 -1804 -9570 -2974 -110 -48 -229 -99
-265 -115 -36 -15 -191 -85 -345 -155 -1394 -634 -2728 -1363 -3506 -1915
-589 -419 -1117 -900 -1530 -1395 -677 -812 -1090 -1692 -1205 -2567 -22 -167
-30 -559 -15 -729 53 -600 262 -1133 625 -1594 117 -149 359 -385 510 -497
785 -584 2045 -948 3561 -1028 411 -22 1035 -11 1475 25 1250 104 2353 414
3125 881 130 78 375 252 375 265 0 5 -12 6 -27 4 -131 -23 -1014 -32 -1418
-15 -1964 83 -3432 496 -4330 1217 -399 321 -647 645 -765 1002 -157 473 -61
986 290 1548 356 570 1044 1250 1955 1929 1348 1006 3065 2027 5797 3448 551
287 1716 870 2603 1303 390 191 541 264 1070 518 326 156 1019 486 1425 677
245 115 452 214 460 219 13 7 13 8 0 8 -8 0 -141 -27 -295 -60z"/>
<path d="M27150 21803 c-515 -27 -902 -67 -1285 -133 -1071 -184 -1917 -499
-2527 -941 -71 -50 -128 -96 -128 -100 0 -5 12 -6 28 -4 130 23 999 32 1412
15 1866 -77 3315 -463 4210 -1123 557 -410 873 -855 946 -1332 21 -137 14
-392 -16 -530 -187 -879 -1073 -1862 -2740 -3040 -917 -647 -2044 -1334 -3610
-2197 -1051 -580 -3019 -1589 -4425 -2268 -77 -37 -256 -124 -399 -194 -142
-69 -260 -126 -261 -126 -1 0 -114 -54 -250 -120 -136 -66 -248 -120 -249
-120 -2 0 -93 -43 -202 -96 -177 -86 -607 -290 -829 -394 -550 -258 -686 -323
-682 -327 16 -15 1349 283 2132 477 4001 992 7662 2343 10345 3818 1230 676
1897 1146 2569 1807 542 534 936 1065 1234 1665 290 583 435 1107 466 1686 41
747 -165 1432 -605 2016 -93 123 -375 408 -494 499 -213 164 -464 313 -730
435 -774 353 -1752 566 -2875 624 -169 9 -890 11 -1035 3z"/>
</g>
</svg>
